<?xml version="1.0" encoding="UTF-8" standalone="no"?>
<svg
   width="25"
   height="25"
   viewBox="0 0 25 25.543478"
   fill="none"
   version="1.1"
   id="svg4"
   sodipodi:docname="Basket.svg"
   inkscape:version="1.1 (c68e22c387, 2021-05-23)"
   xmlns:inkscape="http://www.inkscape.org/namespaces/inkscape"
   xmlns:sodipodi="http://sodipodi.sourceforge.net/DTD/sodipodi-0.dtd"
   xmlns="http://www.w3.org/2000/svg"
   xmlns:svg="http://www.w3.org/2000/svg">
  <defs
     id="defs8" />
  <sodipodi:namedview
     id="namedview6"
     pagecolor="#ffffff"
     bordercolor="#666666"
     borderopacity="1.0"
     inkscape:pageshadow="2"
     inkscape:pageopacity="0.0"
     inkscape:pagecheckerboard="0"
     showgrid="false"
     width="25px"
     inkscape:zoom="9.4782609"
     inkscape:cx="13.451835"
     inkscape:cy="14.559633"
     inkscape:window-width="1366"
     inkscape:window-height="706"
     inkscape:window-x="-8"
     inkscape:window-y="-8"
     inkscape:window-maximized="1"
     inkscape:current-layer="svg4" />
  <path
     d="m 21.436303,15.690982 v 3.503083 h 3.351094 v 2.335406 h -3.351094 v 3.503137 h -2.234062 v -3.503137 h -3.351147 v -2.335406 h 3.351147 V 15.690982 Z M 12.5,13.355575 c -1.228739,0 -2.234062,1.050946 -2.234062,2.335407 0,1.28446 1.005323,2.335406 2.234062,2.335406 1.22874,0 2.234063,-1.050946 2.234063,-2.335406 0,-1.284461 -1.005323,-2.335407 -2.234063,-2.335407 z m 1.507984,9.341626 H 5.2392655 c -1.0276751,0 -1.8877927,-0.723995 -2.1447061,-1.704849 L 0.25728535,10.167744 c -0.044682,-0.105084 -0.044682,-0.210168 -0.044682,-0.3152518 0,-0.642257 0.5026662,-1.16773 1.11703655,-1.16773 H 6.6802614 L 11.572835,1.0363336 C 11.785087,0.69770191 12.142543,0.51086991 12.5,0.51086991 c 0.357456,0 0.714912,0.186832 0.927164,0.51379049 l 4.892575,7.6601018 h 5.350627 c 0.61437,0 1.117031,0.525473 1.117031,1.1677299 l -0.03349,0.3152519 -1.083534,4.133693 c -0.636708,-0.361997 -1.351621,-0.665602 -2.10003,-0.817432 l 0.647866,-2.463837 H 2.7929571 l 2.4463084,9.341627 h 8.3777655 c 0,0.817379 0.145205,1.599712 0.390953,2.335406 z M 9.3723235,8.6847622 H 15.627677 L 12.5,3.7804351 Z"
     fill="#495e57"
     id="path2"
     style="stroke-width:0.534234" />
</svg>
