<?xml version="1.0" encoding="UTF-8" standalone="no"?>
<svg
   width="25"
   height="25"
   viewBox="0 0 35 25"
   fill="none"
   version="1.1"
   id="svg4"
   sodipodi:docname="icon _hamburger_menu.svg"
   inkscape:version="1.1 (c68e22c387, 2021-05-23)"
   xmlns:inkscape="http://www.inkscape.org/namespaces/inkscape"
   xmlns:sodipodi="http://sodipodi.sourceforge.net/DTD/sodipodi-0.dtd"
   xmlns="http://www.w3.org/2000/svg"
   xmlns:svg="http://www.w3.org/2000/svg">
  <defs
     id="defs8" />
  <sodipodi:namedview
     id="namedview6"
     pagecolor="#ffffff"
     bordercolor="#666666"
     borderopacity="1.0"
     inkscape:pageshadow="2"
     inkscape:pageopacity="0.0"
     inkscape:pagecheckerboard="0"
     showgrid="false"
     inkscape:zoom="12.331942"
     inkscape:cx="1.2568985"
     inkscape:cy="12.731166"
     inkscape:window-width="1366"
     inkscape:window-height="706"
     inkscape:window-x="-8"
     inkscape:window-y="-8"
     inkscape:window-maximized="1"
     inkscape:current-layer="svg4" />
  <path
     fill-rule="evenodd"
     clip-rule="evenodd"
     d="m 1.9923035,-4.3 c -0.713712,0 -1.292304,0.8357435 -1.292304,1.8666681 0,1.0309152 0.578592,1.86666816 1.292304,1.86666816 H 33.007649 C 33.721312,-0.56666374 34.3,-1.4024167 34.3,-2.4333319 34.3,-3.4642565 33.721312,-4.3 33.007649,-4.3 Z m -1.292304,16.8 c 0,-1.030983 0.578592,-1.866682 1.292304,-1.866682 H 33.007649 c 0.713663,0 1.292351,0.835699 1.292351,1.866682 0,1.030982 -0.578688,1.866681 -1.292351,1.866681 H 1.9923035 c -0.713712,0 -1.292304,-0.835699 -1.292304,-1.866681 z m 0,14.933318 c 0,-1.030713 0.578592,-1.866681 1.292304,-1.866681 H 33.007649 c 0.713663,0 1.292351,0.835968 1.292351,1.866681 C 34.3,28.464166 33.721312,29.3 33.007649,29.3 H 1.9923035 c -0.713712,0 -1.292304,-0.835834 -1.292304,-1.866682 z"
     fill="#000000"
     id="path2"
     style="stroke-width:1.13589;fill:#495e57;fill-opacity:1" />
</svg>
